<svg width="3" height="5" viewBox="0 0 11 11" fill="none" xmlns="http://www.w3.org/2000/svg">
<path d="M9.98498 1.01487C10.1436 1.17345 10.158 1.42161 10.0282 1.59648L9.98498 1.64658L6.13192 5.49984L9.98498 9.3531C10.1436 9.51169 10.158 9.75985 10.0282 9.93472L9.98498 9.98482C9.8264 10.1434 9.57824 10.1578 9.40336 10.0281L9.35326 9.98482L5.18415 5.8157C5.02556 5.65712 5.01114 5.40896 5.1409 5.23408L5.18415 5.18398L9.35326 1.01487C9.52771 0.840422 9.81054 0.840422 9.98498 1.01487Z" fill="white" stroke="white" stroke-width="0.5"/>
<path d="M6.04748 1.01487C6.20607 1.17345 6.22048 1.42161 6.09073 1.59648L6.04748 1.64658L2.19442 5.49984L6.04748 9.3531C6.20607 9.51169 6.22048 9.75985 6.09073 9.93472L6.04748 9.98482C5.8889 10.1434 5.64074 10.1578 5.46586 10.0281L5.41576 9.98482L1.24665 5.8157C1.08806 5.65712 1.07364 5.40896 1.2034 5.23408L1.24665 5.18398L5.41576 1.01487C5.59021 0.840422 5.87304 0.840422 6.04748 1.01487Z" fill="white" stroke="white" stroke-width="0.5"/>
</svg>
